<svg width="36" height="36" viewBox="0 0 36 36" fill="none" xmlns="http://www.w3.org/2000/svg">
<g filter="url(#filter0_b_3529_8748)">
<rect width="36" height="36" rx="18" fill="white" fill-opacity="0.1"/>
<path d="M15.6499 11.9678H12.3311C12.1472 11.9678 12 12.1168 12 12.2989V15.6177C12 15.8017 12.149 15.9488 12.3311 15.9488H12.9769C13.1608 15.9488 13.308 15.7998 13.308 15.6177V13.6069C13.308 13.423 13.457 13.2758 13.6391 13.2758H15.6499C15.8339 13.2758 15.981 13.1268 15.981 12.9447V12.2989C15.9829 12.1168 15.8339 11.9678 15.6499 11.9678Z" fill="white"/>
<path d="M23.6675 11.9678H20.3487C20.1648 11.9678 20.0176 12.1168 20.0176 12.2989V12.9447C20.0176 13.1286 20.1666 13.2758 20.3487 13.2758H22.3595C22.5434 13.2758 22.6906 13.4248 22.6906 13.6069V15.6177C22.6906 15.8017 22.8396 15.9488 23.0217 15.9488H23.6675C23.8514 15.9488 23.9986 15.7998 23.9986 15.6177V12.2989C24.0004 12.1168 23.8515 11.9678 23.6675 11.9678Z" fill="white"/>
<path d="M23.6676 20.0498H23.0237C22.8397 20.0498 22.6926 20.1988 22.6926 20.381V22.3917C22.6926 22.5757 22.5435 22.7229 22.3614 22.7229H20.3507C20.1667 22.7229 20.0195 22.8719 20.0195 23.054V23.6997C20.0195 23.8837 20.1685 24.0309 20.3507 24.0309H23.6695C23.8534 24.0309 24.0006 23.8819 24.0006 23.6997V20.3809C24.0006 20.197 23.8516 20.0498 23.6676 20.0498Z" fill="white"/>
<path d="M15.6499 22.7248H13.6391C13.4552 22.7248 13.308 22.5758 13.308 22.3936V20.3829C13.308 20.1989 13.159 20.0518 12.9769 20.0518H12.3311C12.1472 20.0518 12 20.2008 12 20.3829V23.7017C12 23.8856 12.149 24.0328 12.3311 24.0328H15.6499C15.8339 24.0328 15.9811 23.8838 15.9811 23.7017V23.0559C15.9829 22.872 15.8339 22.7248 15.6499 22.7248Z" fill="white"/>
</g>
<defs>
<filter id="filter0_b_3529_8748" x="-20" y="-20" width="76" height="76" filterUnits="userSpaceOnUse" color-interpolation-filters="sRGB">
<feFlood flood-opacity="0" result="BackgroundImageFix"/>
<feGaussianBlur in="BackgroundImageFix" stdDeviation="10"/>
<feComposite in2="SourceAlpha" operator="in" result="effect1_backgroundBlur_3529_8748"/>
<feBlend mode="normal" in="SourceGraphic" in2="effect1_backgroundBlur_3529_8748" result="shape"/>
</filter>
</defs>
</svg>
