<svg width="36" height="36" viewBox="0 0 36 36" fill="none" xmlns="http://www.w3.org/2000/svg">
<rect width="36" height="36" rx="18" fill="white" fill-opacity="0.1"/>
<path d="M13.4598 20.7195L13.3455 20.655H13.2141H10.7607V15.3451L13.2103 15.345L13.3414 15.345L13.4556 15.2806L17.7604 12.8557L17.7564 23.1439L13.4598 20.7195Z" stroke="white"/>
<path d="M20.9497 15.7637L20.3559 16.3242C20.7863 16.7799 21.0137 17.3764 20.9959 18.003C20.9777 18.6296 20.717 19.2122 20.2607 19.6427L20.8213 20.2365C21.4361 19.6561 21.7875 18.8715 21.8117 18.0262C21.8364 17.1819 21.5301 16.3779 20.9497 15.7637Z" fill="white"/>
<path d="M22.2015 14.1973L21.6076 14.7578C22.4449 15.644 22.8867 16.8031 22.8517 18.0215C22.8173 19.2398 22.31 20.3716 21.4238 21.2083L21.9843 21.8021C23.0291 20.8154 23.6271 19.4811 23.668 18.0447C23.7088 16.6082 23.1881 15.242 22.2015 14.1973Z" fill="white"/>
<path d="M23.6262 12.5284L23.0323 13.0889C24.3028 14.4335 24.9729 16.1925 24.9203 18.0411C24.8676 19.8898 24.0981 21.6073 22.7529 22.8771L23.3134 23.471C24.8166 22.0512 25.677 20.1316 25.736 18.0646C25.7957 15.9978 25.046 14.0321 23.6262 12.5284Z" fill="white"/>
</svg>
