<svg width="36" height="36" viewBox="0 0 36 36" fill="none" xmlns="http://www.w3.org/2000/svg">
<path d="M18.8205 24.3591H13.8974C12.8638 24.3591 11.8724 23.9484 11.1415 23.2175C10.4106 22.4866 10 21.4953 10 20.4616V15.5385C10 14.5049 10.4106 13.5136 11.1415 12.7826C11.8724 12.0517 12.8638 11.6411 13.8974 11.6411H22.1026C23.1362 11.6411 24.1276 12.0517 24.8585 12.7826C25.5894 13.5136 26 14.5049 26 15.5385V18.0001C26 18.1633 25.9352 18.3198 25.8198 18.4352C25.7044 18.5506 25.5478 18.6155 25.3846 18.6155C25.2214 18.6155 25.0649 18.5506 24.9495 18.4352C24.8341 18.3198 24.7692 18.1633 24.7692 18.0001V15.5385C24.7671 14.832 24.4854 14.155 23.9858 13.6553C23.4862 13.1557 22.8091 12.874 22.1026 12.8719H13.8974C13.1909 12.874 12.5138 13.1557 12.0142 13.6553C11.5146 14.155 11.2329 14.832 11.2308 15.5385V20.4616C11.2329 21.1682 11.5146 21.8452 12.0142 22.3449C12.5138 22.8445 13.1909 23.1261 13.8974 23.1283H18.8205C18.9837 23.1283 19.1402 23.1931 19.2557 23.3085C19.3711 23.4239 19.4359 23.5805 19.4359 23.7437C19.4359 23.9069 19.3711 24.0634 19.2557 24.1788C19.1402 24.2942 18.9837 24.3591 18.8205 24.3591Z" fill="#CBCBC2"/>
<path d="M22.1024 24.0224C21.913 24.0219 21.7257 23.9839 21.5511 23.9107C21.3764 23.8374 21.218 23.7304 21.085 23.5957L20.0265 22.5373C19.9178 22.4206 19.8586 22.2663 19.8614 22.1069C19.8642 21.9475 19.9288 21.7953 20.0416 21.6826C20.1543 21.5698 20.3064 21.5053 20.4659 21.5025C20.6253 21.4996 20.7796 21.5588 20.8962 21.6675L21.9547 22.726C21.9738 22.7458 21.9968 22.7616 22.0221 22.7724C22.0475 22.7832 22.0748 22.7888 22.1024 22.7888C22.13 22.7888 22.1573 22.7832 22.1826 22.7724C22.208 22.7616 22.2309 22.7458 22.2501 22.726L24.9496 20.0265C25.0662 19.9178 25.2205 19.8586 25.3799 19.8614C25.5394 19.8642 25.6915 19.9288 25.8042 20.0416C25.917 20.1543 25.9816 20.3064 25.9844 20.4659C25.9872 20.6253 25.928 20.7796 25.8193 20.8962L23.1198 23.5957C22.9867 23.7304 22.8283 23.8374 22.6537 23.9107C22.4791 23.9839 22.2917 24.0219 22.1024 24.0224Z" fill="#CBCBC2"/>
<path d="M18.0002 18.6157C17.1324 18.6171 16.289 18.3283 15.6043 17.7952L12.8064 15.6208C12.7363 15.5737 12.6766 15.5127 12.6311 15.4415C12.5856 15.3703 12.5552 15.2905 12.5419 15.2071C12.5286 15.1237 12.5325 15.0385 12.5536 14.9567C12.5746 14.8748 12.6123 14.7983 12.6643 14.7316C12.7162 14.665 12.7813 14.6098 12.8555 14.5694C12.9297 14.5291 13.0114 14.5044 13.0956 14.497C13.1797 14.4896 13.2645 14.4996 13.3446 14.5263C13.4247 14.5531 13.4985 14.5961 13.5612 14.6526L16.3592 16.827C16.8302 17.1876 17.407 17.383 18.0002 17.383C18.5935 17.383 19.1702 17.1876 19.6412 16.827L22.4392 14.6526C22.502 14.5961 22.5757 14.5531 22.6558 14.5263C22.736 14.4996 22.8207 14.4896 22.9049 14.497C22.989 14.5044 23.0707 14.5291 23.1449 14.5694C23.2191 14.6098 23.2842 14.665 23.3362 14.7316C23.3881 14.7983 23.4258 14.8748 23.4468 14.9567C23.4679 15.0385 23.4719 15.1237 23.4585 15.2071C23.4452 15.2905 23.4148 15.3703 23.3693 15.4415C23.3238 15.5127 23.2642 15.5737 23.1941 15.6208L20.3961 17.7952C19.7114 18.3283 18.868 18.6171 18.0002 18.6157Z" fill="#CBCBC2"/>
</svg>
