<svg width="16" height="16" viewBox="0 0 16 16" fill="none" xmlns="http://www.w3.org/2000/svg">
<path fill-rule="evenodd" clip-rule="evenodd" d="M2.6869 12.6058C2.49164 12.801 2.49164 13.1176 2.6869 13.3129C2.88216 13.5081 3.19874 13.5081 3.39401 13.3129L7.99953 8.70734L12.6055 13.3133C12.8008 13.5086 13.1174 13.5086 13.3126 13.3133C13.5079 13.1181 13.5079 12.8015 13.3126 12.6062L8.70664 8.00024L13.3129 3.394C13.5081 3.19874 13.5081 2.88216 13.3129 2.6869C13.1176 2.49163 12.801 2.49163 12.6058 2.6869L7.99953 7.29313L3.39376 2.68737C3.1985 2.4921 2.88192 2.4921 2.68666 2.68737C2.4914 2.88263 2.4914 3.19921 2.68666 3.39447L7.29242 8.00024L2.6869 12.6058Z" fill="#4A4946"/>
</svg>
