<svg width="36" height="36" viewBox="0 0 36 36" fill="none" xmlns="http://www.w3.org/2000/svg">
<path d="M22.7179 11.7067V10.6154C22.7179 10.4522 22.6531 10.2956 22.5377 10.1802C22.4223 10.0648 22.2658 10 22.1026 10C21.9394 10 21.7828 10.0648 21.6674 10.1802C21.552 10.2956 21.4872 10.4522 21.4872 10.6154V11.641H14.5128V10.6154C14.5128 10.4522 14.448 10.2956 14.3326 10.1802C14.2172 10.0648 14.0606 10 13.8974 10C13.7342 10 13.5777 10.0648 13.4623 10.1802C13.3469 10.2956 13.2821 10.4522 13.2821 10.6154V11.7067C12.3688 11.851 11.5369 12.316 10.9354 13.0182C10.3339 13.7204 10.0023 14.6139 10 15.5385V22.1026C10 23.1362 10.4106 24.1276 11.1415 24.8585C11.8724 25.5894 12.8638 26 13.8974 26H22.1026C23.1362 26 24.1276 25.5894 24.8585 24.8585C25.5894 24.1276 26 23.1362 26 22.1026V15.5385C25.9977 14.6139 25.6661 13.7204 25.0646 13.0182C24.4631 12.316 23.6312 11.851 22.7179 11.7067ZM13.8974 12.8718H22.1026C22.7011 12.8741 23.2814 13.0776 23.7502 13.4497C24.2191 13.8217 24.5491 14.3407 24.6872 14.9231H11.3128C11.4509 14.3407 11.7809 13.8217 12.2498 13.4497C12.7186 13.0776 13.2989 12.8741 13.8974 12.8718ZM22.1026 24.7692H13.8974C13.1909 24.7671 12.5138 24.4854 12.0142 23.9858C11.5146 23.4862 11.2329 22.8091 11.2308 22.1026V16.1538H24.7692V22.1026C24.7671 22.8091 24.4854 23.4862 23.9858 23.9858C23.4862 24.4854 22.8091 24.7671 22.1026 24.7692Z" fill="#CBCBC2"/>
<path d="M20.0267 18.3854L17.1795 21.2326L15.9734 20.0264C15.8567 19.9177 15.7024 19.8585 15.543 19.8613C15.3836 19.8641 15.2315 19.9287 15.1187 20.0415C15.006 20.1542 14.9414 20.3063 14.9386 20.4658C14.9358 20.6252 14.9949 20.7795 15.1036 20.8961L16.7447 22.5372C16.8601 22.6524 17.0165 22.7171 17.1795 22.7171C17.3426 22.7171 17.499 22.6524 17.6144 22.5372L20.8965 19.2551C21.0052 19.1385 21.0643 18.9842 21.0615 18.8247C21.0587 18.6653 20.9941 18.5132 20.8814 18.4005C20.7686 18.2877 20.6165 18.2231 20.4571 18.2203C20.2977 18.2175 20.1434 18.2767 20.0267 18.3854Z" fill="#CBCBC2"/>
</svg>
