<svg width="20" height="20" viewBox="0 0 20 20" fill="none" xmlns="http://www.w3.org/2000/svg">
<g clip-path="url(#clip0_4005_3635)">
<path d="M10 0C4.475 0 0 4.475 0 10C0 15.525 4.475 20 10 20C15.525 20 20 15.525 20 10C20 4.475 15.525 0 10 0ZM13.7 14.075C11.95 14.1917 8.05 14.1917 6.3 14.075C4.4 13.9417 4.18333 13.0167 4.16667 10C4.18333 6.975 4.4 6.05 6.3 5.925C8.05 5.80833 11.95 5.80833 13.7 5.925C15.6 6.05833 15.8167 6.98333 15.8333 10C15.8167 13.025 15.6 13.95 13.7 14.075ZM8.33333 8.05L12.4333 10L8.33333 11.9583V8.05833V8.05Z" fill="#262626"/>
</g>
<defs>
<clipPath id="clip0_4005_3635">
<rect width="20" height="20" fill="white"/>
</clipPath>
</defs>
</svg>
