<svg width="36" height="36" viewBox="0 0 36 36" fill="none" xmlns="http://www.w3.org/2000/svg">
<g filter="url(#filter0_b_3459_44941)">
<rect width="36" height="36" rx="18" fill="black" fill-opacity="0.2"/>
<path d="M10 18.0012C10.0004 19.5043 10.4242 20.9769 11.2228 22.2503C12.0214 23.5237 13.1625 24.5463 14.5153 25.201C15.8681 25.8558 17.378 26.1162 18.872 25.9523C20.3659 25.7885 21.7835 25.2071 22.9623 24.2747C24.1412 23.3423 25.0336 22.0967 25.5373 20.6805C26.041 19.2643 26.1357 17.7349 25.8104 16.2674C25.4852 14.7999 24.7533 13.4536 23.6984 12.383C22.6436 11.3123 21.3085 10.5604 19.8462 10.2136L19.8462 11.4913C21.3645 11.9207 22.6854 12.8668 23.5807 14.1663C24.4759 15.4659 24.8894 17.0373 24.7498 18.6092C24.6102 20.1812 23.9261 21.655 22.8158 22.7763C21.7054 23.8977 20.2385 24.596 18.6682 24.7509C17.0979 24.9058 15.5228 24.5075 14.2149 23.6247C12.9069 22.742 11.9482 21.4301 11.5042 19.9158C11.0602 18.4014 11.1588 16.7795 11.783 15.33C12.4072 13.8806 13.5178 12.6947 14.9231 11.9769L14.9231 14.3083L16.1538 14.3083L16.1538 10L11.8462 10L11.8462 11.2309L13.7434 11.2309C12.5985 11.9514 11.6547 12.9501 11.0001 14.134C10.3455 15.3179 10.0014 16.6483 10 18.0012Z" fill="white" stroke="white" stroke-width="0.4"/>
</g>
<defs>
<filter id="filter0_b_3459_44941" x="-20" y="-20" width="76" height="76" filterUnits="userSpaceOnUse" color-interpolation-filters="sRGB">
<feFlood flood-opacity="0" result="BackgroundImageFix"/>
<feGaussianBlur in="BackgroundImageFix" stdDeviation="10"/>
<feComposite in2="SourceAlpha" operator="in" result="effect1_backgroundBlur_3459_44941"/>
<feBlend mode="normal" in="SourceGraphic" in2="effect1_backgroundBlur_3459_44941" result="shape"/>
</filter>
</defs>
</svg>
