<svg width="36" height="36" viewBox="0 0 36 36" fill="none" xmlns="http://www.w3.org/2000/svg">
<path fill-rule="evenodd" clip-rule="evenodd" d="M23.8418 9.20049C22.7635 9.20049 21.88 10.0842 21.88 11.1861C21.88 12.2879 22.7635 13.1717 23.8418 13.1717C24.9201 13.1717 25.8036 12.2879 25.8036 11.1861C25.8036 10.0842 24.9201 9.20049 23.8418 9.20049ZM20.68 11.1861C20.68 9.43197 22.0904 8.00049 23.8418 8.00049C25.5932 8.00049 27.0036 9.43197 27.0036 11.1861C27.0036 12.9402 25.5932 14.3717 23.8418 14.3717C22.8905 14.3717 22.0398 13.9494 21.4611 13.2824L14.9986 17.2786C15.2068 17.7036 15.3236 18.1818 15.3236 18.6867C15.3236 18.7643 15.3209 18.8413 15.3154 18.9176L21.4609 22.7177C22.0396 22.0506 22.8904 21.6282 23.8418 21.6282C25.5932 21.6282 27.0036 23.0597 27.0036 24.8138C27.0036 26.5679 25.5932 27.9994 23.8418 27.9994C22.0904 27.9994 20.68 26.5679 20.68 24.8138C20.68 24.4434 20.7429 24.0873 20.8586 23.7562L14.9842 20.1236C14.4637 21.1595 13.3977 21.8723 12.1618 21.8723C10.4104 21.8723 9 20.4408 9 18.6867C9 16.9326 10.4104 15.5011 12.1618 15.5011C12.975 15.5011 13.7147 15.8097 14.2738 16.3159L20.8587 12.244C20.7429 11.9127 20.68 11.5566 20.68 11.1861ZM21.88 24.8138C21.88 23.7119 22.7635 22.8282 23.8418 22.8282C24.9201 22.8282 25.8036 23.7119 25.8036 24.8138C25.8036 25.9156 24.9201 26.7994 23.8418 26.7994C22.7635 26.7994 21.88 25.9156 21.88 24.8138ZM10.2 18.6867C10.2 17.5848 11.0835 16.7011 12.1618 16.7011C13.2401 16.7011 14.1236 17.5848 14.1236 18.6867C14.1236 19.7885 13.2401 20.6723 12.1618 20.6723C11.0835 20.6723 10.2 19.7885 10.2 18.6867Z" fill="white"/>
</svg>
