<svg width="40" height="40" viewBox="0 0 40 40" fill="none" xmlns="http://www.w3.org/2000/svg">
<path fill-rule="evenodd" clip-rule="evenodd" d="M18.0378 11.4197C15.4018 12.0202 13.2162 13.8042 12.0694 16.1831H15.7887C16.2454 14.5493 16.9952 12.9468 18.0378 11.4197ZM19.6761 11.2059L19.4881 11.4558C18.3529 12.9649 17.5366 14.557 17.0387 16.1831H22.9576C22.4598 14.557 21.6434 12.9649 20.5082 11.4558L20.3201 11.2057C20.214 11.2019 20.1074 11.2 20.0004 11.2C19.8919 11.2 19.7838 11.202 19.6761 11.2059ZM15.5068 17.3831H11.5965C11.3394 18.2096 11.201 19.0884 11.201 19.9995C11.201 20.91 11.3393 21.7882 11.596 22.6143H15.4933C15.1709 20.8823 15.1755 19.1213 15.5068 17.3831ZM16.716 22.6143C16.3632 20.8845 16.3678 19.1214 16.7303 17.3831H23.2661C23.6285 19.1214 23.6331 20.8845 23.2804 22.6143H16.716ZM15.7705 23.8143H12.0686C13.2138 26.191 15.3958 27.9741 18.0278 28.577C16.9762 27.0573 16.2238 25.4546 15.7705 23.8143ZM19.679 28.7932L19.485 28.5398C18.3374 27.0412 17.5156 25.4491 17.0199 23.8143H22.9765C22.4808 25.4491 21.6589 27.0412 20.5113 28.5398L20.3172 28.7933C20.2121 28.797 20.1065 28.7989 20.0004 28.7989C19.8928 28.7989 19.7857 28.797 19.679 28.7932ZM24.4895 17.3831C24.8208 19.1213 24.8254 20.8823 24.503 22.6143H28.4049C28.6616 21.7882 28.7999 20.91 28.7999 19.9995C28.7999 19.0884 28.6614 18.2096 28.4044 17.3831H24.4895ZM24.2259 23.8143C23.7724 25.4551 23.0198 27.0582 21.9677 28.5782C24.6021 27.9766 26.7863 26.1926 27.9322 23.8143H24.2259ZM21.9578 11.4185C23.0008 12.9459 23.7508 14.5489 24.2077 16.1831H27.9315C26.7839 13.8026 24.5961 12.0178 21.9578 11.4185ZM10.001 19.9995C10.001 14.4769 14.4779 10 20.0004 10C25.523 10 29.9999 14.4769 29.9999 19.9995C29.9999 25.522 25.523 29.9989 20.0004 29.9989C14.4779 29.9989 10.001 25.522 10.001 19.9995Z" fill="#F6F3E8"/>
</svg>
