<svg width="32" height="32" viewBox="0 0 32 32" fill="none" xmlns="http://www.w3.org/2000/svg">
<g filter="url(#filter0_b_3459_43811)">
<path fill-rule="evenodd" clip-rule="evenodd" d="M20.9317 6.50114C21.3267 6.50114 21.6468 6.82132 21.6468 7.21627V7.61479H23.8823C24.9757 7.61479 25.8621 8.50118 25.8621 9.5946V13.229V14.4213V23.519C25.8621 24.6124 24.9757 25.4988 23.8823 25.4988H8.11654C7.02311 25.4988 6.13672 24.6125 6.13672 23.519V14.4213V13.229V9.59461C6.13672 8.50119 7.02311 7.61479 8.11653 7.61479H10.3523V7.21635C10.3523 6.8214 10.6724 6.50122 11.0674 6.50122C11.4623 6.50122 11.7825 6.8214 11.7825 7.21635V7.61479H20.2166V7.21627C20.2166 6.82132 20.5368 6.50114 20.9317 6.50114ZM20.2166 9.04504H11.7825V9.27576C11.7825 9.67072 11.4623 9.99089 11.0674 9.99089C10.6724 9.99089 10.3523 9.67072 10.3523 9.27576V9.04504H8.11653C7.81302 9.04504 7.56697 9.29109 7.56697 9.59461V13.229H24.4319V9.5946C24.4319 9.29109 24.1858 9.04504 23.8823 9.04504H21.6468V9.27568C21.6468 9.67064 21.3267 9.99081 20.9317 9.99081C20.5368 9.99081 20.2166 9.67064 20.2166 9.27568V9.04504ZM24.4319 14.4213H7.56697V23.519C7.56697 23.8225 7.81302 24.0686 8.11654 24.0686H23.8823C24.1858 24.0686 24.4319 23.8225 24.4319 23.519V14.4213Z" fill="black"/>
</g>
<defs>
<filter id="filter0_b_3459_43811" x="-100" y="-100" width="232" height="232" filterUnits="userSpaceOnUse" color-interpolation-filters="sRGB">
<feFlood flood-opacity="0" result="BackgroundImageFix"/>
<feGaussianBlur in="BackgroundImageFix" stdDeviation="50"/>
<feComposite in2="SourceAlpha" operator="in" result="effect1_backgroundBlur_3459_43811"/>
<feBlend mode="normal" in="SourceGraphic" in2="effect1_backgroundBlur_3459_43811" result="shape"/>
</filter>
</defs>
</svg>
