<svg width="34" height="19" viewBox="0 0 34 19" fill="none" xmlns="http://www.w3.org/2000/svg">
<path d="M17 4.88382C14.5114 4.88382 12.4869 6.90835 12.4869 9.39729C12.4869 11.8862 14.5114 13.9108 17 13.9108C19.4886 13.9108 21.5131 11.8859 21.5131 9.39729C21.5131 6.90868 19.4886 4.88382 17 4.88382ZM17 12.2937C15.403 12.2937 14.1039 10.9943 14.1039 9.39729C14.1039 7.80031 15.4033 6.50086 17 6.50086C18.5967 6.50086 19.8961 7.80031 19.8961 9.39729C19.8961 10.9943 18.597 12.2937 17 12.2937ZM29.6666 8.92835C26.5331 4.52549 21.9161 2 17 2C12.0839 2 7.46693 4.52549 4.33343 8.92835L4 9.39729L4.33343 9.86591C7.4666 14.2691 12.0836 16.7946 17 16.7946C21.9164 16.7946 26.5334 14.2691 29.6666 9.86591L30 9.39729L29.6666 8.92835ZM17 15.1776C12.7889 15.1776 8.80874 13.0786 5.99672 9.39729C8.80874 5.71595 12.7892 3.61704 17 3.61704C21.2108 3.61704 25.1913 5.71595 28.0033 9.39729C25.1913 13.0786 21.2111 15.1776 17 15.1776Z" fill="#86868B"/>
</svg>
