<svg width="36" height="36" viewBox="0 0 36 36" fill="none" xmlns="http://www.w3.org/2000/svg">
<path fill-rule="evenodd" clip-rule="evenodd" d="M14.745 14.3174C14.745 12.526 16.2004 11.0721 17.9979 11.0721C19.7954 11.0721 21.2508 12.526 21.2508 14.3174C21.2508 16.1087 19.7954 17.5627 17.9979 17.5627C16.2004 17.5627 14.745 16.1087 14.745 14.3174ZM17.9979 10C15.6103 10 13.673 11.932 13.673 14.3174C13.673 15.9363 14.5654 17.3464 15.8852 18.0854C12.506 18.9693 10 21.9205 10 25.4645V26.0005H10.536H25.464H26V25.4645C26 21.9195 23.4926 18.9676 20.1119 18.0846C21.431 17.3454 22.3228 15.9357 22.3228 14.3174C22.3228 11.932 20.3855 10 17.9979 10ZM18 18.8869C21.6588 18.8869 24.6187 21.5645 24.9053 24.9285H11.0948C11.3814 21.5645 14.3413 18.8869 18 18.8869Z" fill="white"/>
</svg>
