<svg width="24" height="16" viewBox="0 0 24 16" fill="none" xmlns="http://www.w3.org/2000/svg">
<path d="M23.2925 4.95238C23.2925 5.78685 23.0748 6.60318 22.6394 7.40136L22.6394 7.45578L17.6326 16L15.3469 16L18.9387 9.85034L18.3401 9.90476C16.9977 9.90476 15.8548 9.41497 14.9115 8.43537C13.9319 7.49206 13.4421 6.33107 13.4421 4.95238C13.4421 3.5737 13.9319 2.39456 14.9115 1.41497C15.8548 0.471655 16.9977 -5.50308e-07 18.3401 -4.32951e-07C19.7188 -3.12422e-07 20.8979 0.471656 21.8775 1.41497C22.8208 2.39456 23.2925 3.5737 23.2925 4.95238ZM5.65983 9.90476C4.28114 9.90476 3.12014 9.41497 2.17683 8.43537C1.19724 7.49206 0.707446 6.33106 0.707446 4.95238C0.707446 3.60998 1.19724 2.44898 2.17683 1.46939C3.12014 0.489795 4.28114 -1.66202e-06 5.65983 -1.5415e-06C7.00223 -1.42414e-06 8.16323 0.489795 9.14282 1.46939C10.1224 2.44898 10.6122 3.60998 10.6122 4.95238C10.6122 5.82313 10.3764 6.63945 9.90473 7.40136L9.90473 7.45578L4.95234 16L2.61221 16L6.20405 9.85034L5.65983 9.90476Z" fill="#716F64"/>
</svg>
