<svg width="40" height="40" viewBox="0 0 40 40" fill="none" xmlns="http://www.w3.org/2000/svg">
<path fill-rule="evenodd" clip-rule="evenodd" d="M11.2068 18.2769C11.2068 14.3684 14.3753 11.2 18.2837 11.2C22.1922 11.2 25.3606 14.3684 25.3606 18.2769C25.3606 22.1853 22.1922 25.3538 18.2837 25.3538C14.3753 25.3538 11.2068 22.1853 11.2068 18.2769ZM18.2837 10C13.7125 10 10.0068 13.7057 10.0068 18.2769C10.0068 22.8481 13.7125 26.5538 18.2837 26.5538C20.373 26.5538 22.2815 25.7797 23.738 24.5026L28.7256 29.5746L29.1463 30.0024L30.0019 29.161L29.5812 28.7332L24.581 23.6485C25.8154 22.2028 26.5606 20.3269 26.5606 18.2769C26.5606 13.7057 22.8549 10 18.2837 10Z" fill="white"/>
</svg>
