<svg width="48" height="48" viewBox="0 0 48 48" fill="none" xmlns="http://www.w3.org/2000/svg">
<path fill-rule="evenodd" clip-rule="evenodd" d="M13.6 14.5V15.1V16.0008H22.4V15.1V14.5H23.6V15.1V16.0008H26.8H28V17.2008V31.8008V33.0008H26.8H9.2H8V31.8008V17.2008V16.0008H9.2H12.4V15.1V14.5H13.6ZM12.4 17.2008H9.2V20.8004H26.8V17.2008H23.6V17.9V18.5H22.4V17.9V17.2008H13.6V17.9V18.5H12.4V17.9V17.2008ZM26.8 22.0004H9.2V31.8008H26.8V22.0004ZM14.5984 27.2004H13.3984V26.0004H14.5984V27.2004ZM18.5984 27.2004H17.3984V26.0004H18.5984V27.2004ZM21.3984 27.2004H22.5984V26.0004H21.3984V27.2004Z" fill="black"/>
</svg>
