<svg width="36" height="36" viewBox="0 0 36 36" fill="none" xmlns="http://www.w3.org/2000/svg">
<path fill-rule="evenodd" clip-rule="evenodd" d="M15.0754 14.0364C15.0754 12.4219 16.3842 11.1131 17.9987 11.1131C19.6133 11.1131 20.9221 12.4219 20.9221 14.0364C20.9221 15.6509 19.6133 16.9597 17.9987 16.9597C16.3842 16.9597 15.0754 15.6509 15.0754 14.0364ZM17.9987 9.91309C15.7215 9.91309 13.8754 11.7592 13.8754 14.0364C13.8754 15.6012 14.7471 16.9624 16.0313 17.661C14.0605 18.1958 12.2073 19.5492 10.7169 21.6619L10.7157 21.6637L10.6549 21.7505L10.6544 21.7512C10.1501 22.4682 9.90557 23.4704 10.0336 24.3261C10.0987 24.7613 10.2674 25.2032 10.5979 25.5428C10.9402 25.8946 11.4087 26.087 11.9647 26.087H23.9793C24.559 26.087 25.0506 25.9094 25.4104 25.557C25.7617 25.213 25.9268 24.7616 25.9799 24.3213C26.0838 23.4598 25.7844 22.472 25.3009 21.7724C23.8081 19.6118 21.939 18.2234 19.9466 17.6716C21.2415 16.9762 22.1221 15.6092 22.1221 14.0364C22.1221 11.7592 20.276 9.91309 17.9987 9.91309ZM11.6975 22.3536L11.6981 22.3528C13.5091 19.7859 15.7989 18.5842 18.0159 18.6011C20.2338 18.618 22.518 19.8556 24.3136 22.4545L24.3137 22.4546C24.6581 22.9529 24.8519 23.6519 24.7885 24.1776C24.758 24.431 24.6742 24.5984 24.5708 24.6997C24.4758 24.7927 24.3068 24.887 23.9793 24.887H11.9647C11.7016 24.887 11.5536 24.8043 11.4579 24.706C11.3504 24.5955 11.2599 24.4126 11.2204 24.1486C11.1392 23.6062 11.3041 22.9132 11.6363 22.4411L11.6371 22.4399L11.6975 22.3536Z" fill="white"/>
</svg>
