<svg width="140" height="140" viewBox="0 0 140 140" fill="none" xmlns="http://www.w3.org/2000/svg">
<g filter="url(#filter0_b_4429_42247)">
<rect width="140" height="140" rx="70" fill="white" fill-opacity="0.2"/>
<path fill-rule="evenodd" clip-rule="evenodd" d="M58.9593 54.0786C58.407 54.0786 57.9593 54.5263 57.9593 55.0786C57.9593 55.6309 58.407 56.0786 58.9593 56.0786H64.3351C61.181 57.3208 58.5147 59.5692 56.7577 62.486C54.8585 65.6391 54.1467 69.3664 54.7503 72.9974C55.3539 76.6284 57.2333 79.925 60.0505 82.294C62.8676 84.6631 66.4376 85.9492 70.1184 85.9211C73.7992 85.8929 77.3491 84.5524 80.1297 82.1405C82.9103 79.7286 84.7391 76.4038 85.2871 72.7639C85.8351 69.1241 85.0664 65.4081 83.1192 62.2845C81.172 59.1608 78.1741 56.8344 74.6648 55.7238C74.1383 55.5571 73.5763 55.8489 73.4097 56.3754C73.243 56.902 73.5348 57.4639 74.0613 57.6305C77.1166 58.5975 79.7266 60.6229 81.4219 63.3425C83.1172 66.062 83.7865 69.2972 83.3094 72.4662C82.8323 75.6351 81.2401 78.5298 78.8192 80.6297C76.3984 82.7295 73.3077 83.8966 70.1031 83.9211C66.8985 83.9457 63.7904 82.8259 61.3377 80.7633C58.885 78.7008 57.2487 75.8307 56.7232 72.6694C56.1977 69.5082 56.8175 66.2631 58.471 63.5179C60.1099 60.7969 62.658 58.744 65.6633 57.7211V62.7827C65.6633 63.3349 66.111 63.7827 66.6633 63.7827C67.2156 63.7827 67.6633 63.3349 67.6633 62.7827V55.0786C67.6633 54.5263 67.2156 54.0786 66.6633 54.0786H58.9593Z" fill="white"/>
</g>
<defs>
<filter id="filter0_b_4429_42247" x="-60" y="-60" width="260" height="260" filterUnits="userSpaceOnUse" color-interpolation-filters="sRGB">
<feFlood flood-opacity="0" result="BackgroundImageFix"/>
<feGaussianBlur in="BackgroundImageFix" stdDeviation="30"/>
<feComposite in2="SourceAlpha" operator="in" result="effect1_backgroundBlur_4429_42247"/>
<feBlend mode="normal" in="SourceGraphic" in2="effect1_backgroundBlur_4429_42247" result="shape"/>
</filter>
</defs>
</svg>
