<svg width="34" height="21" viewBox="0 0 34 21" fill="none" xmlns="http://www.w3.org/2000/svg">
<line x1="7.2235" y1="20.099" x2="25.981" y2="1.34149" stroke="#CACACB" stroke-width="1.86207"/>
<path fill-rule="evenodd" clip-rule="evenodd" d="M20.5948 3.47006C19.4272 3.1675 18.2228 3.01123 16.9999 3.01123C12.0838 3.01123 7.4669 5.5367 4.33343 9.93954L4 10.4085L4.33343 10.8771C5.60436 12.6632 7.11943 14.1403 8.79961 15.2653L9.96897 14.0959C8.49223 13.155 7.14677 11.9141 5.9967 10.4085C8.80871 6.72715 12.7892 4.62826 16.9999 4.62826C17.7549 4.62826 18.5024 4.69573 19.2372 4.82769L20.5948 3.47006ZM18.0472 6.01769C17.711 5.9375 17.3603 5.89503 16.9999 5.89503C14.5113 5.89503 12.4868 7.91955 12.4868 10.4085C12.4868 10.7688 12.5292 11.1194 12.6094 11.4555L14.1451 9.9198C14.3509 8.71347 15.3054 7.75899 16.5116 7.55325L18.0472 6.01769ZM18.6611 8.03717L19.8151 6.88314C20.8494 7.71094 21.513 8.9837 21.513 10.4085C21.513 12.8971 19.4885 14.9219 16.9999 14.9219C15.575 14.9219 14.3023 14.2582 13.4746 13.2237L14.6286 12.0696C15.153 12.8161 16.0204 13.3049 16.9999 13.3049C18.5969 13.3049 19.896 12.0054 19.896 10.4085C19.896 9.42912 19.4073 8.56166 18.6611 8.03717ZM11.6754 15.0228C13.3533 15.7856 15.1544 16.1887 16.9999 16.1887C21.211 16.1887 25.1911 14.0898 28.0031 10.4085C26.1796 8.02123 23.8647 6.29942 21.3143 5.3839L22.5648 4.13342C25.3034 5.27622 27.7596 7.26027 29.6664 9.93954L29.9998 10.4085L29.6664 10.8771C26.5332 15.2802 21.9163 17.8057 16.9999 17.8057C14.7164 17.8057 12.4976 17.2609 10.462 16.2362L11.6754 15.0228Z" fill="#CACACB"/>
</svg>
