<svg width="32" height="32" viewBox="0 0 32 32" fill="none" xmlns="http://www.w3.org/2000/svg">
<g filter="url(#filter0_b_3459_43823)">
<path d="M17.0256 23.9487H10.8718C9.57971 23.9487 8.34055 23.4354 7.42692 22.5218C6.51328 21.6082 6 20.369 6 19.0769V12.9231C6 11.631 6.51328 10.3918 7.42692 9.4782C8.34055 8.56456 9.57971 8.05128 10.8718 8.05128H21.1282C22.4203 8.05128 23.6594 8.56456 24.5731 9.4782C25.4867 10.3918 26 11.631 26 12.9231V16C26 16.204 25.919 16.3997 25.7747 16.5439C25.6304 16.6882 25.4348 16.7692 25.2308 16.7692C25.0268 16.7692 24.8311 16.6882 24.6868 16.5439C24.5426 16.3997 24.4615 16.204 24.4615 16V12.9231C24.4588 12.0399 24.1068 11.1936 23.4822 10.569C22.8577 9.94451 22.0114 9.59245 21.1282 9.58975H10.8718C9.98857 9.59245 9.1423 9.94451 8.51776 10.569C7.89323 11.1936 7.54117 12.0399 7.53846 12.9231V19.0769C7.54117 19.9601 7.89323 20.8064 8.51776 21.431C9.1423 22.0555 9.98857 22.4076 10.8718 22.4103H17.0256C17.2297 22.4103 17.4253 22.4913 17.5696 22.6356C17.7138 22.7798 17.7949 22.9755 17.7949 23.1795C17.7949 23.3835 17.7138 23.5792 17.5696 23.7234C17.4253 23.8677 17.2297 23.9487 17.0256 23.9487Z" fill="black"/>
<path d="M21.1295 23.5277C20.8928 23.5271 20.6586 23.4796 20.4403 23.3881C20.222 23.2966 20.024 23.1628 19.8577 22.9944L18.5346 21.6713C18.3987 21.5255 18.3247 21.3327 18.3282 21.1334C18.3318 20.9341 18.4125 20.7439 18.5534 20.603C18.6944 20.4621 18.8845 20.3813 19.0838 20.3778C19.2831 20.3743 19.4759 20.4483 19.6218 20.5842L20.9448 21.9072C20.9688 21.9321 20.9974 21.9518 21.0292 21.9653C21.0609 21.9788 21.095 21.9857 21.1295 21.9857C21.1639 21.9857 21.198 21.9788 21.2297 21.9653C21.2615 21.9518 21.2901 21.9321 21.3141 21.9072L24.6884 18.5329C24.8342 18.397 25.0271 18.323 25.2264 18.3265C25.4257 18.3301 25.6158 18.4108 25.7568 18.5517C25.8977 18.6927 25.9784 18.8828 25.9819 19.0821C25.9855 19.2814 25.9115 19.4742 25.7756 19.6201L22.4012 22.9944C22.2349 23.1628 22.0369 23.2966 21.8186 23.3881C21.6003 23.4796 21.3661 23.5271 21.1295 23.5277Z" fill="black"/>
<path d="M16.0005 16.7692C14.9158 16.771 13.8615 16.41 13.0056 15.7435L9.50821 13.0256C9.42056 12.9667 9.34598 12.8904 9.2891 12.8014C9.23223 12.7125 9.19427 12.6128 9.17761 12.5085C9.16094 12.4042 9.16592 12.2976 9.19224 12.1954C9.21855 12.0931 9.26564 11.9974 9.33056 11.9141C9.39548 11.8308 9.47685 11.7618 9.56961 11.7114C9.66236 11.6609 9.76451 11.6301 9.86969 11.6208C9.97487 11.6116 10.0808 11.624 10.181 11.6575C10.2811 11.691 10.3733 11.7447 10.4518 11.8153L13.9492 14.5333C14.538 14.9841 15.259 15.2284 16.0005 15.2284C16.7421 15.2284 17.463 14.9841 18.0518 14.5333L21.5492 11.8153C21.6277 11.7447 21.7199 11.691 21.82 11.6575C21.9202 11.624 22.0262 11.6116 22.1313 11.6208C22.2365 11.6301 22.3387 11.6609 22.4314 11.7114C22.5242 11.7618 22.6055 11.8308 22.6705 11.9141C22.7354 11.9974 22.7825 12.0931 22.8088 12.1954C22.8351 12.2976 22.8401 12.4042 22.8234 12.5085C22.8068 12.6128 22.7688 12.7125 22.7119 12.8014C22.655 12.8904 22.5805 12.9667 22.4928 13.0256L18.9954 15.7435C18.1395 16.41 17.0853 16.771 16.0005 16.7692Z" fill="black"/>
</g>
<defs>
<filter id="filter0_b_3459_43823" x="-100" y="-100" width="232" height="232" filterUnits="userSpaceOnUse" color-interpolation-filters="sRGB">
<feFlood flood-opacity="0" result="BackgroundImageFix"/>
<feGaussianBlur in="BackgroundImageFix" stdDeviation="50"/>
<feComposite in2="SourceAlpha" operator="in" result="effect1_backgroundBlur_3459_43823"/>
<feBlend mode="normal" in="SourceGraphic" in2="effect1_backgroundBlur_3459_43823" result="shape"/>
</filter>
</defs>
</svg>
