<svg width="32" height="32" viewBox="0 0 32 32" fill="none" xmlns="http://www.w3.org/2000/svg">
<g filter="url(#filter0_b_3945_32823)">
<path fill-rule="evenodd" clip-rule="evenodd" d="M20.4218 8.66821C18.7844 8.66821 17.457 9.99559 17.457 11.633C17.457 13.2704 18.7844 14.5978 20.4218 14.5978C22.0592 14.5978 23.3866 13.2704 23.3866 11.633C23.3866 9.99559 22.0592 8.66821 20.4218 8.66821ZM16.2302 11.633C16.2302 10.9072 16.4147 10.2245 16.7393 9.62915H9.17557C8.86679 9.62915 8.61328 9.87938 8.61328 10.1914V20.3637C8.61328 20.6725 8.86351 20.926 9.17557 20.926H13.3774C13.5758 20.926 13.7331 20.9854 13.8459 21.0419L13.8632 21.0505L13.8799 21.0602L17.5076 23.1693V21.9279C17.5076 21.3744 17.9561 20.926 18.5095 20.926H21.8117C22.1205 20.926 22.374 20.6758 22.374 20.3637V15.3432C21.791 15.6506 21.1267 15.8246 20.4218 15.8246C18.1069 15.8246 16.2302 13.9479 16.2302 11.633ZM9.17557 8.40234H17.751C18.4762 7.80212 19.4069 7.44141 20.4218 7.44141C22.7368 7.44141 24.6134 9.31804 24.6134 11.633C24.6134 12.6767 24.2319 13.6314 23.6008 14.3651V20.3637C23.6008 21.3602 22.791 22.1528 21.8117 22.1528H18.7344V23.5534C18.7344 24.3217 17.8965 24.8115 17.2215 24.4221L17.2198 24.4211L13.3183 22.1528H9.17557C8.17903 22.1528 7.38647 21.3431 7.38647 20.3637V10.1914C7.38647 9.1949 8.1962 8.40234 9.17557 8.40234ZM14.2364 14.7511H10.4538C9.81993 14.7511 9.81993 13.7697 10.4538 13.7697H14.2364C14.8703 13.7697 14.8703 14.7511 14.2364 14.7511ZM10.4831 17.5216H16.9647C17.5986 17.5216 17.5986 16.5402 16.9647 16.5402H10.4831C9.84923 16.5402 9.84923 17.5216 10.4831 17.5216ZM20.8104 11.1983C21.1145 10.866 21.4187 10.5338 21.7203 10.2015C21.8736 10.0379 22.1497 10.0482 22.303 10.2015C22.4666 10.3651 22.4564 10.6207 22.303 10.7843L22.0372 11.0705C21.7356 11.4028 21.4315 11.735 21.1273 12.0673C20.8232 12.3995 20.519 12.7318 20.2174 13.0641C20.0743 13.2174 19.7676 13.2276 19.6347 13.0641C19.2769 12.6245 18.9088 12.1849 18.5408 11.7453C18.3977 11.5715 18.3772 11.3261 18.5408 11.1625C18.6942 11.0194 18.9804 10.9887 19.1235 11.1625C19.3916 11.4919 19.6655 11.8213 19.9408 12.1507C20.2292 11.8332 20.5198 11.5158 20.8104 11.1983Z" fill="white"/>
</g>
<defs>
<filter id="filter0_b_3945_32823" x="-100" y="-100" width="232" height="232" filterUnits="userSpaceOnUse" color-interpolation-filters="sRGB">
<feFlood flood-opacity="0" result="BackgroundImageFix"/>
<feGaussianBlur in="BackgroundImageFix" stdDeviation="50"/>
<feComposite in2="SourceAlpha" operator="in" result="effect1_backgroundBlur_3945_32823"/>
<feBlend mode="normal" in="SourceGraphic" in2="effect1_backgroundBlur_3945_32823" result="shape"/>
</filter>
</defs>
</svg>
