<svg width="40" height="41" viewBox="0 0 40 41" fill="none" xmlns="http://www.w3.org/2000/svg">
<g clip-path="url(#clip0_5501_35502)">
<path d="M29.6054 32.6566V36.3211C29.6054 38.1803 28.0994 39.6912 26.2353 39.6912H4.35157C2.49236 39.6912 0.981445 38.1852 0.981445 36.3211V17.8467C0.981445 15.9875 2.48745 14.4766 4.35157 14.4766H26.2353C28.0945 14.4766 29.6054 15.9826 29.6054 17.8467V22.1243" stroke="black" stroke-width="1.96223" stroke-miterlimit="10"/>
<path d="M8.53613 10.1146V7.92185C8.53613 4.0906 11.6414 0.980469 15.4775 0.980469C19.3088 0.980469 22.4189 4.08569 22.4189 7.92185V10.1146" stroke="black" stroke-width="1.96223" stroke-miterlimit="10" stroke-linecap="round"/>
<path d="M33.7507 22.125H20.5547C17.6476 22.125 15.291 24.4816 15.291 27.3887V27.3936C15.291 30.3006 17.6476 32.6573 20.5547 32.6573H33.7507C36.6577 32.6573 39.0143 30.3006 39.0143 27.3936V27.3887C39.0143 24.4816 36.6577 22.125 33.7507 22.125Z" stroke="black" stroke-width="1.96223" stroke-miterlimit="10"/>
<path d="M21.4036 28.9185C22.2489 28.9185 22.9341 28.2333 22.9341 27.388C22.9341 26.5427 22.2489 25.8574 21.4036 25.8574C20.5583 25.8574 19.873 26.5427 19.873 27.388C19.873 28.2333 20.5583 28.9185 21.4036 28.9185Z" fill="black"/>
<path d="M27.1526 28.9185C27.9979 28.9185 28.6831 28.2333 28.6831 27.388C28.6831 26.5427 27.9979 25.8574 27.1526 25.8574C26.3073 25.8574 25.6221 26.5427 25.6221 27.388C25.6221 28.2333 26.3073 28.9185 27.1526 28.9185Z" fill="black"/>
<path d="M32.7649 28.9185C33.6102 28.9185 34.2955 28.2333 34.2955 27.388C34.2955 26.5427 33.6102 25.8574 32.7649 25.8574C31.9196 25.8574 31.2344 26.5427 31.2344 27.388C31.2344 28.2333 31.9196 28.9185 32.7649 28.9185Z" fill="black"/>
</g>
<defs>
<clipPath id="clip0_5501_35502">
<rect width="40" height="40.6672" fill="white"/>
</clipPath>
</defs>
</svg>
