<svg width="32" height="32" viewBox="0 0 32 32" fill="none" xmlns="http://www.w3.org/2000/svg">
<g filter="url(#filter0_b_3459_43795)">
<path fill-rule="evenodd" clip-rule="evenodd" d="M17.4782 10.7809C17.4782 8.81032 19.0756 7.21288 21.0461 7.21288C23.0165 7.21288 24.6139 8.81032 24.6139 10.7809C24.6139 12.7516 23.0165 14.349 21.0461 14.349C19.0756 14.349 17.4782 12.7516 17.4782 10.7809ZM21.0461 6.00027C18.4059 6.00027 16.2656 8.14068 16.2656 10.7809C16.2656 13.4212 18.4059 15.5616 21.0461 15.5616C23.6863 15.5616 25.8265 13.4212 25.8265 10.7809C25.8265 8.14068 23.6863 6.00027 21.0461 6.00027ZM23.1718 9.9178C23.3615 9.71711 23.3526 9.40066 23.1519 9.21098C22.9512 9.02129 22.6348 9.03021 22.4451 9.2309L20.3576 11.4395L19.4653 10.4763C19.2776 10.2737 18.9613 10.2617 18.7587 10.4493C18.5561 10.637 18.544 10.9533 18.7317 11.1559L19.9871 12.5111L20.3502 12.9031L20.7173 12.5147L23.1718 9.9178Z" fill="black"/>
<path d="M18.0486 7.71986H7.58298C6.80376 7.71986 6.17208 8.35154 6.17208 9.13076V21.3521C6.17208 22.1313 6.80376 22.763 7.58298 22.763H12.6348C12.7178 22.763 12.7994 22.785 12.8712 22.8267L17.6236 25.589C17.9372 25.7712 18.3303 25.545 18.3303 25.1824V23.2333C18.3303 22.9736 18.5408 22.763 18.8006 22.763H22.7668C23.5461 22.763 24.1777 22.1313 24.1777 21.3521L24.1777 14.0147" stroke="black" stroke-width="1.5" stroke-linecap="round"/>
<path fill-rule="evenodd" clip-rule="evenodd" d="M9.14062 13.5304H9.11092C8.85119 13.5304 8.64062 13.741 8.64062 14.0007V14.0601C8.64062 14.3199 8.85119 14.5304 9.11092 14.5304H9.14062H13.5023H13.532C13.7918 14.5304 14.0023 14.3199 14.0023 14.0601V14.0007C14.0023 13.741 13.7918 13.5304 13.532 13.5304H13.5023H9.14062ZM9.14062 16.8625H9.11092C8.85119 16.8625 8.64062 17.073 8.64062 17.3328V17.3922C8.64062 17.6519 8.85119 17.8625 9.11092 17.8625H9.14062H16.7933H16.823C17.0827 17.8625 17.2933 17.6519 17.2933 17.3922V17.3328C17.2933 17.073 17.0827 16.8625 16.823 16.8625H16.7933H9.14062Z" fill="black"/>
</g>
<defs>
<filter id="filter0_b_3459_43795" x="-100" y="-100" width="232" height="232" filterUnits="userSpaceOnUse" color-interpolation-filters="sRGB">
<feFlood flood-opacity="0" result="BackgroundImageFix"/>
<feGaussianBlur in="BackgroundImageFix" stdDeviation="50"/>
<feComposite in2="SourceAlpha" operator="in" result="effect1_backgroundBlur_3459_43795"/>
<feBlend mode="normal" in="SourceGraphic" in2="effect1_backgroundBlur_3459_43795" result="shape"/>
</filter>
</defs>
</svg>
