<svg width="48" height="48" viewBox="0 0 48 48" fill="none" xmlns="http://www.w3.org/2000/svg">
<rect width="48" height="48" rx="24" fill="#262626"/>
<path fill-rule="evenodd" clip-rule="evenodd" d="M18.8 18.2H21.2C21.5314 18.2 21.8 18.4686 21.8 18.8V21.2C21.8 21.5314 21.5314 21.8 21.2 21.8H18.8C18.4686 21.8 18.2 21.5314 18.2 21.2V18.8C18.2 18.4686 18.4686 18.2 18.8 18.2ZM17 18.8C17 17.8059 17.8059 17 18.8 17H21.2C22.1941 17 23 17.8059 23 18.8V21.2C23 22.1941 22.1941 23 21.2 23H18.8C17.8059 23 17 22.1941 17 21.2V18.8ZM26.8 18.2H29.2C29.5314 18.2 29.8 18.4686 29.8 18.8V21.2C29.8 21.5314 29.5314 21.8 29.2 21.8H26.8C26.4686 21.8 26.2 21.5314 26.2 21.2V18.8C26.2 18.4686 26.4686 18.2 26.8 18.2ZM25 18.8C25 17.8059 25.8059 17 26.8 17H29.2C30.1941 17 31 17.8059 31 18.8V21.2C31 22.1941 30.1941 23 29.2 23H26.8C25.8059 23 25 22.1941 25 21.2V18.8ZM29.2 26.2H26.8C26.4686 26.2 26.2 26.4686 26.2 26.8V29.2C26.2 29.5314 26.4686 29.8 26.8 29.8H29.2C29.5314 29.8 29.8 29.5314 29.8 29.2V26.8C29.8 26.4686 29.5314 26.2 29.2 26.2ZM26.8 25C25.8059 25 25 25.8059 25 26.8V29.2C25 30.1941 25.8059 31 26.8 31H29.2C30.1941 31 31 30.1941 31 29.2V26.8C31 25.8059 30.1941 25 29.2 25H26.8ZM18.8 26.2H21.2C21.5314 26.2 21.8 26.4686 21.8 26.8V29.2C21.8 29.5314 21.5314 29.8 21.2 29.8H18.8C18.4686 29.8 18.2 29.5314 18.2 29.2V26.8C18.2 26.4686 18.4686 26.2 18.8 26.2ZM17 26.8C17 25.8059 17.8059 25 18.8 25H21.2C22.1941 25 23 25.8059 23 26.8V29.2C23 30.1941 22.1941 31 21.2 31H18.8C17.8059 31 17 30.1941 17 29.2V26.8Z" fill="white"/>
</svg>
