<svg width="20" height="20" viewBox="0 0 20 20" fill="none" xmlns="http://www.w3.org/2000/svg">
<g clip-path="url(#clip0_4005_3637)">
<path d="M10 0C4.475 0 0 4.475 0 10C0 15.525 4.475 20 10 20C15.525 20 20 15.525 20 10C20 4.475 15.525 0 10 0ZM8.33333 13.3333H6.66667V8.33333H8.33333V13.3333ZM7.5 7.59167C6.99167 7.59167 6.58333 7.175 6.58333 6.66667C6.58333 6.15833 6.99167 5.74167 7.5 5.74167C8.00833 5.74167 8.41667 6.15833 8.41667 6.66667C8.41667 7.175 8.00833 7.59167 7.5 7.59167ZM14.1667 13.3333H12.5V10.95C12.5 9.38333 10.8333 9.51667 10.8333 10.95V13.3333H9.16667V8.33333H10.8333V9.24167C11.5583 7.89167 14.1667 7.79167 14.1667 10.5333V13.3333Z" fill="#262626"/>
</g>
<defs>
<clipPath id="clip0_4005_3637">
<rect width="20" height="20" fill="white"/>
</clipPath>
</defs>
</svg>
