<svg width="16" height="12" viewBox="0 0 16 12" fill="none" xmlns="http://www.w3.org/2000/svg">
<path d="M3.45984 8.71953L3.34545 8.65499H3.21412H0.760742V3.34513L3.21025 3.34501L3.34138 3.345L3.45563 3.28065L7.76041 0.855717L7.75638 11.1439L3.45984 8.71953Z" stroke="#000"/>
<path d="M10.9497 3.76367L10.3559 4.32418C10.7863 4.7799 11.0137 5.37642 10.9959 6.00302C10.9777 6.62964 10.717 7.21219 10.2607 7.64265L10.8213 8.23648C11.4361 7.65608 11.7875 6.87147 11.8117 6.02619C11.8364 5.18193 11.5301 4.37795 10.9497 3.76367Z" fill="#000"/>
<path d="M12.2015 2.19727L11.6076 2.75778C12.4449 3.64396 12.8867 4.80312 12.8517 6.02149C12.8173 7.23979 12.31 8.37156 11.4238 9.2083L11.9843 9.80213C13.0291 8.81545 13.6271 7.48109 13.668 6.04466C13.7088 4.60823 13.1881 3.24202 12.2015 2.19727Z" fill="#000"/>
<path d="M13.6262 0.528375L13.0323 1.08889C14.3028 2.43347 14.9729 4.19246 14.9203 6.04107C14.8676 7.88981 14.0981 9.60731 12.7529 10.8771L13.3134 11.471C14.8166 10.0512 15.677 8.13159 15.736 6.06465C15.7957 3.99785 15.046 2.03208 13.6262 0.528375Z" fill="#000"/>
</svg>
