<svg width="34" height="40" viewBox="0 0 34 40" fill="none" xmlns="http://www.w3.org/2000/svg">
<path d="M23.9993 28.9262C23.9993 29.3574 23.4998 29.5964 23.1641 29.3258L17.7599 24.9694C17.5746 24.82 17.311 24.8176 17.1231 24.9635L11.4939 29.3341C11.1567 29.5958 10.666 29.3555 10.666 28.9287V11.1257C10.666 10.8268 10.7716 10.5401 10.9605 10.329C11.1493 10.1179 11.4038 9.99902 11.6705 9.99902H22.9949C23.2616 9.99902 23.5171 10.1179 23.706 10.329C23.8938 10.5401 23.9993 10.8268 23.9993 11.1257V28.9262ZM11.9516 11.4079V26.2417C11.9516 26.6674 12.44 26.908 12.7775 26.6485L17.1419 23.2934C17.33 23.1488 17.5928 23.152 17.7773 23.3012L21.908 26.641C22.2436 26.9123 22.7438 26.6735 22.7438 26.242V11.4079H11.9527H11.9516Z" fill="white"/>
</svg>
