<svg width="24" height="16" viewBox="0 0 24 16" fill="none" xmlns="http://www.w3.org/2000/svg">
<path d="M0.70752 11.0476C0.70752 10.2132 0.925207 9.39682 1.36058 8.59864V8.54422L6.36738 0H8.6531L5.06126 6.14966L5.6599 6.09524C7.0023 6.09524 8.14516 6.58503 9.08847 7.56463C10.0681 8.50794 10.5579 9.66893 10.5579 11.0476C10.5579 12.4263 10.0681 13.6054 9.08847 14.585C8.14516 15.5283 7.0023 16 5.6599 16C4.28122 16 3.10208 15.5283 2.12249 14.585C1.17917 13.6054 0.70752 12.4263 0.70752 11.0476ZM18.3402 6.09524C19.7189 6.09524 20.8799 6.58503 21.8232 7.56463C22.8028 8.50794 23.2926 9.66893 23.2926 11.0476C23.2926 12.39 22.8028 13.551 21.8232 14.5306C20.8799 15.5102 19.7189 16 18.3402 16C16.9978 16 15.8368 15.5102 14.8572 14.5306C13.8776 13.551 13.3878 12.39 13.3878 11.0476C13.3878 10.1769 13.6236 9.36054 14.0953 8.59864V8.54422L19.0477 0H21.3878L17.796 6.14966L18.3402 6.09524Z" fill="#716F64"/>
</svg>
