<svg width="48" height="48" viewBox="0 0 48 48" fill="none" xmlns="http://www.w3.org/2000/svg">
<rect width="48" height="48" rx="24" fill="white"/>
<path fill-rule="evenodd" clip-rule="evenodd" d="M23.5601 11.8157L17.2775 17.9079L16.666 17.2773L23.9993 10.1662L31.3327 17.2773L30.7212 17.9079L24.4386 11.8157L24.4386 24.8331L23.5601 24.8331L23.5601 11.8157Z" fill="#262626" stroke="black" stroke-width="0.916667"/>
<path d="M17.72 38.5H16.61V32.78H14.63V31.78H19.71V32.78H17.72V38.5ZM23.6488 38.64C21.7588 38.64 20.3288 37.22 20.3288 35.13C20.3288 33.06 21.7588 31.64 23.6488 31.64C25.5388 31.64 26.9688 33.06 26.9688 35.13C26.9688 37.22 25.5388 38.64 23.6488 38.64ZM23.6488 37.63C25.1188 37.63 25.8288 36.96 25.8288 35.13C25.8288 33.32 25.1188 32.65 23.6488 32.65C22.1688 32.65 21.4588 33.32 21.4588 35.13C21.4588 36.96 22.1688 37.63 23.6488 37.63ZM29.3963 38.5H28.2663V31.78H30.5863C31.9763 31.78 33.1263 32.47 33.1263 33.89C33.1263 35.31 31.9363 36 30.5863 36H29.3963V38.5ZM29.3963 35H30.9663C31.6563 35 31.9963 34.69 31.9963 33.89C31.9963 33.08 31.6563 32.78 30.9663 32.78H29.3963V35Z" fill="black"/>
</svg>
