<svg width="36" height="36" viewBox="0 0 36 36" fill="none" xmlns="http://www.w3.org/2000/svg">
<path d="M18.0016 26.4589L16.9131 25.5006C15.264 24.0631 13.9035 22.8253 12.8316 21.7871C11.7596 20.749 10.9103 19.8264 10.2837 19.0196C9.657 18.2133 9.21998 17.4786 8.97262 16.8155C8.72525 16.1529 8.60156 15.4783 8.60156 14.7915C8.60156 13.4339 9.07585 12.2958 10.0244 11.3771C10.9723 10.459 12.1472 10 13.5489 10C14.4065 10 15.2228 10.1955 15.9979 10.5865C16.773 10.9781 17.4409 11.5413 18.0016 12.276C18.5623 11.5413 19.2302 10.9781 20.0052 10.5865C20.7803 10.1955 21.5966 10 22.4542 10C23.8559 10 25.0308 10.459 25.9787 11.3771C26.9273 12.2958 27.4016 13.4339 27.4016 14.7915C27.4016 15.4783 27.2779 16.1529 27.0305 16.8155C26.7831 17.4786 26.3461 18.2133 25.7195 19.0196C25.0928 19.8264 24.2435 20.749 23.1716 21.7871C22.0996 22.8253 20.7391 24.0631 19.09 25.5006L18.0016 26.4589Z" stroke="white" stroke-width="1.2"/>
</svg>
