<svg width="32" height="32" viewBox="0 0 32 32" fill="none" xmlns="http://www.w3.org/2000/svg">
<g filter="url(#filter0_b_3945_32831)">
<path fill-rule="evenodd" clip-rule="evenodd" d="M7.3999 11.0311C7.3999 10.0075 8.22967 9.17773 9.25324 9.17773H22.7466C23.7701 9.17773 24.5999 10.0075 24.5999 11.0311V16.4444C24.5999 16.7758 24.3313 17.0444 23.9999 17.0444C23.6685 17.0444 23.3999 16.7758 23.3999 16.4444V11.0311C23.3999 10.6702 23.1074 10.3777 22.7466 10.3777H9.25324C8.89241 10.3777 8.5999 10.6702 8.5999 11.0311V20.9688C8.5999 21.3297 8.89241 21.6222 9.25324 21.6222H17.3332C17.6646 21.6222 17.9332 21.8908 17.9332 22.2222C17.9332 22.5536 17.6646 22.8222 17.3332 22.8222H9.25324C8.22967 22.8222 7.3999 21.9924 7.3999 20.9688V11.0311ZM24.4235 18.2421C24.6578 18.4765 24.6578 18.8564 24.4235 19.0907L21.4965 22.0177C20.9151 22.5991 19.9723 22.5991 19.3909 22.0177L18.2417 20.8684C18.0073 20.6341 18.0073 20.2542 18.2417 20.0199C18.476 19.7856 18.8559 19.7856 19.0902 20.0199L20.2394 21.1692C20.3522 21.282 20.5352 21.282 20.648 21.1692L23.575 18.2421C23.8093 18.0078 24.1892 18.0078 24.4235 18.2421ZM10.9923 11.9408C10.7143 11.7605 10.3428 11.8398 10.1625 12.1178C9.9822 12.3959 10.0615 12.7674 10.3395 12.9477L14.3306 15.5355C15.4377 16.2533 16.8678 16.2347 17.9557 15.4883L21.672 12.939C21.9453 12.7516 22.0148 12.3781 21.8274 12.1048C21.6399 11.8316 21.2664 11.762 20.9932 11.9495L17.2769 14.4988C16.5886 14.971 15.6838 14.9828 14.9835 14.5286L10.9923 11.9408Z" fill="white"/>
</g>
<defs>
<filter id="filter0_b_3945_32831" x="-100" y="-100" width="232" height="232" filterUnits="userSpaceOnUse" color-interpolation-filters="sRGB">
<feFlood flood-opacity="0" result="BackgroundImageFix"/>
<feGaussianBlur in="BackgroundImageFix" stdDeviation="50"/>
<feComposite in2="SourceAlpha" operator="in" result="effect1_backgroundBlur_3945_32831"/>
<feBlend mode="normal" in="SourceGraphic" in2="effect1_backgroundBlur_3945_32831" result="shape"/>
</filter>
</defs>
</svg>
