<svg width="36" height="36" viewBox="0 0 36 36" fill="none" xmlns="http://www.w3.org/2000/svg">
<g filter="url(#filter0_b_5662_3068)">
<path fill-rule="evenodd" clip-rule="evenodd" d="M23.1676 10.22C22.2138 10.22 21.4324 11.0016 21.4324 11.976C21.4324 12.9504 22.2138 13.732 23.1676 13.732C24.1213 13.732 24.9027 12.9504 24.9027 11.976C24.9027 11.0016 24.1213 10.22 23.1676 10.22ZM20.3711 11.976C20.3711 10.4246 21.6186 9.15869 23.1676 9.15869C24.7166 9.15869 25.9641 10.4246 25.9641 11.976C25.9641 13.5274 24.7166 14.7933 23.1676 14.7933C22.3256 14.7933 21.5727 14.4193 21.0609 13.8288L15.3452 17.3628C15.5301 17.7394 15.634 18.1632 15.634 18.6108C15.634 18.6791 15.6316 18.7469 15.6268 18.8141L21.062 22.1747C21.5739 21.5849 22.3263 21.2114 23.1676 21.2114C24.7166 21.2114 25.9641 22.4774 25.9641 24.0287C25.9641 25.5801 24.7166 26.8461 23.1676 26.8461C21.6186 26.8461 20.3711 25.5801 20.3711 24.0287C20.3711 23.701 20.4268 23.3861 20.5292 23.0931L15.3342 19.8809C14.8739 20.7975 13.9308 21.4281 12.8375 21.4281C11.2885 21.4281 10.041 20.1622 10.041 18.6108C10.041 17.0594 11.2885 15.7935 12.8375 15.7935C13.5556 15.7935 14.2089 16.0655 14.7032 16.512L20.5286 12.9101C20.4265 12.6175 20.3711 12.3031 20.3711 11.976ZM21.4324 24.0287C21.4324 23.0543 22.2139 22.2727 23.1676 22.2727C24.1214 22.2727 24.9028 23.0543 24.9028 24.0287C24.9028 25.0032 24.1214 25.7848 23.1676 25.7848C22.2139 25.7848 21.4324 25.0032 21.4324 24.0287ZM11.1023 18.6108C11.1023 17.6364 11.8838 16.8548 12.8375 16.8548C13.7912 16.8548 14.5727 17.6364 14.5727 18.6108C14.5727 19.5852 13.7912 20.3668 12.8375 20.3668C11.8838 20.3668 11.1023 19.5852 11.1023 18.6108Z" fill="white"/>
</g>
<defs>
<filter id="filter0_b_5662_3068" x="-15.3425" y="-15.3425" width="66.6849" height="66.6849" filterUnits="userSpaceOnUse" color-interpolation-filters="sRGB">
<feFlood flood-opacity="0" result="BackgroundImageFix"/>
<feGaussianBlur in="BackgroundImageFix" stdDeviation="7.67123"/>
<feComposite in2="SourceAlpha" operator="in" result="effect1_backgroundBlur_5662_3068"/>
<feBlend mode="normal" in="SourceGraphic" in2="effect1_backgroundBlur_5662_3068" result="shape"/>
</filter>
</defs>
</svg>
