<svg width="24" height="24" viewBox="0 0 24 24" fill="none" xmlns="http://www.w3.org/2000/svg">
<path fill-rule="evenodd" clip-rule="evenodd" d="M2.75 10C2.75 5.99594 5.99594 2.75 10 2.75C14.0041 2.75 17.25 5.99594 17.25 10C17.25 14.0041 14.0041 17.25 10 17.25C5.99594 17.25 2.75 14.0041 2.75 10ZM10 1.25C5.16751 1.25 1.25 5.16751 1.25 10C1.25 14.8325 5.16751 18.75 10 18.75C12.168 18.75 14.1519 17.9615 15.6805 16.6556L20.7164 21.7766L21.2422 22.3114L22.3118 21.2596L21.7859 20.7249L16.7339 15.5876C17.993 14.0719 18.75 12.1244 18.75 10C18.75 5.16751 14.8325 1.25 10 1.25Z" fill="white"/>
</svg>
