<svg width="20" height="20" viewBox="0 0 20 20" fill="none" xmlns="http://www.w3.org/2000/svg">
<path fill-rule="evenodd" clip-rule="evenodd" d="M3.55469 4.94679C3.55469 4.16562 4.16797 3.55518 4.89672 3.55518C5.62547 3.55518 6.23876 4.16562 6.23876 4.94679C6.23876 5.72796 5.62547 6.33841 4.89672 6.33841C4.16797 6.33841 3.55469 5.72796 3.55469 4.94679ZM4.89672 2.55518C3.59082 2.55518 2.55469 3.63854 2.55469 4.94679C2.55469 6.25504 3.59082 7.33841 4.89672 7.33841C6.03176 7.33841 6.96299 6.52 7.18726 5.44686H18.6078C18.8839 5.44686 19.1078 5.223 19.1078 4.94686C19.1078 4.67072 18.8839 4.44686 18.6078 4.44686H7.18728C6.96307 3.37365 6.0318 2.55518 4.89672 2.55518ZM3.55477 15.9249C3.55477 15.1437 4.16805 14.5333 4.8968 14.5333C5.62555 14.5333 6.23884 15.1437 6.23884 15.9249C6.23884 16.7061 5.62555 17.3165 4.8968 17.3165C4.16805 17.3165 3.55477 16.7061 3.55477 15.9249ZM4.8968 13.5333C3.5909 13.5333 2.55477 14.6166 2.55477 15.9249C2.55477 17.2332 3.5909 18.3165 4.8968 18.3165C6.03155 18.3165 6.9626 17.4985 7.18717 16.4258H18.6079C18.884 16.4258 19.1079 16.2019 19.1079 15.9258C19.1079 15.6496 18.884 15.4258 18.6079 15.4258H7.18754C6.96362 14.3522 6.03217 13.5333 4.8968 13.5333ZM16.7684 9.04395C16.0676 9.04395 15.4736 9.60846 15.429 10.3464C15.4342 10.3754 15.437 10.4052 15.437 10.4356C15.437 10.4661 15.4342 10.4958 15.429 10.5248C15.4736 11.2627 16.0676 11.8272 16.7684 11.8272C17.4971 11.8272 18.1104 11.2167 18.1104 10.4356C18.1104 9.65439 17.4971 9.04395 16.7684 9.04395ZM16.7684 8.04395C15.6333 8.04395 14.702 8.86242 14.4778 9.93563H3.25928C2.98313 9.93563 2.75928 10.1595 2.75928 10.4356C2.75928 10.7118 2.98313 10.9356 3.25928 10.9356H14.4779C14.7021 12.0088 15.6334 12.8272 16.7684 12.8272C18.0743 12.8272 19.1104 11.7438 19.1104 10.4356C19.1104 9.12731 18.0743 8.04395 16.7684 8.04395Z" fill="black"/>
</svg>
