<svg width="60" height="67" viewBox="0 0 60 67" fill="none" xmlns="http://www.w3.org/2000/svg">
<path d="M20.2326 46.1421C20.16 49.2768 21.3642 52.3055 23.5639 54.5386C25.7667 56.7716 28.7773 58.0152 31.9147 57.9879H49.6489V61.7247L49.6458 61.7277C49.6519 64.6354 47.2979 66.9986 44.3901 67.0076H5.25574C2.34803 66.9985 -0.00601557 64.6354 2.61984e-05 61.7277V30.5351C-0.00905117 27.6214 2.34191 25.2522 5.25574 25.234H44.3901C47.3039 25.2522 49.6549 27.6213 49.6458 30.5351V34.2749H32.0062C28.8534 34.2235 25.8156 35.461 23.5919 37.7001C21.371 39.9391 20.1569 42.9896 20.2326 46.1421ZM24.8106 0C21.1887 0.00605107 17.7152 1.44631 15.1522 4.0091C12.5894 6.5719 11.1492 10.0455 11.1431 13.6674V18.2242C11.1431 19.5142 12.1889 20.56 13.479 20.56C14.769 20.56 15.8148 19.5142 15.8148 18.2242V13.6674C15.8057 11.2771 16.7497 8.98055 18.4381 7.28615C20.1265 5.59174 22.4199 4.63861 24.8103 4.63861C27.2036 4.63861 29.4972 5.59174 31.1855 7.28615C32.8709 8.98055 33.8149 11.277 33.8058 13.6674V18.2242C33.8058 19.5142 34.8516 20.56 36.1417 20.56C37.4317 20.56 38.4775 19.5142 38.4775 18.2242V13.6674C38.4775 10.0456 37.0372 6.56903 34.4744 4.00601C31.9116 1.44321 28.4357 0.00302089 24.8106 0ZM60 46.1119C60.006 48.0181 59.2526 49.8456 57.9062 51.1951C56.5627 52.5446 54.7352 53.3041 52.832 53.3071H32.015C28.0756 53.2708 24.9016 50.0666 24.9016 46.1271C24.9016 42.1846 28.0756 38.9803 32.015 38.944H52.832C54.7322 38.941 56.5597 39.6944 57.9032 41.0408C59.2496 42.3843 60.003 44.2118 60 46.1119ZM34.118 43.7912C32.8593 43.8335 31.8607 44.8653 31.8607 46.127C31.8607 47.3857 32.8593 48.4175 34.118 48.4628C35.3767 48.4175 36.3752 47.3857 36.3752 46.127C36.3752 44.8653 35.3767 43.8335 34.118 43.7912ZM42.4115 43.7912C41.1528 43.8335 40.1542 44.8653 40.1542 46.127C40.1542 47.3857 41.1528 48.4175 42.4115 48.4628C43.6702 48.4175 44.6687 47.3857 44.6687 46.127C44.6687 44.8653 43.6702 43.8335 42.4115 43.7912ZM50.7019 43.7912C49.4432 43.8335 48.4477 44.8653 48.4477 46.127C48.4477 47.3857 49.4432 48.4175 50.7019 48.4628C51.9606 48.4175 52.9591 47.3857 52.9591 46.127C52.9591 44.8653 51.9606 43.8335 50.7019 43.7912Z" fill="#4A4946"/>
</svg>
