<svg width="18" height="20" viewBox="0 0 18 20" fill="none" xmlns="http://www.w3.org/2000/svg">
<path fill-rule="evenodd" clip-rule="evenodd" d="M6.7499 1.60039C5.97323 1.60039 5.3499 2.22981 5.3499 3.00039V3.50039C5.3499 3.83176 5.08127 4.10039 4.7499 4.10039C4.41853 4.10039 4.1499 3.83176 4.1499 3.50039V3.00039C4.1499 1.57098 5.30658 0.400391 6.7499 0.400391H14.7599C16.1893 0.400391 17.3599 1.55707 17.3599 3.00039V17.0104C17.3599 18.4398 16.2032 19.6104 14.7599 19.6104H6.7499C5.32049 19.6104 4.1499 18.4537 4.1499 17.0104V16.5104C4.1499 16.179 4.41853 15.9104 4.7499 15.9104C5.08127 15.9104 5.3499 16.179 5.3499 16.5104V17.0104C5.3499 17.7871 5.97932 18.4104 6.7499 18.4104H14.7599C15.5366 18.4104 16.1599 17.781 16.1599 17.0104V3.00039C16.1599 2.22371 15.5305 1.60039 14.7599 1.60039H6.7499ZM0.649902 10.0004C0.649902 9.66902 0.918532 9.40039 1.2499 9.40039H8.30137L6.32564 7.42465C6.09132 7.19034 6.09132 6.81044 6.32564 6.57613C6.55995 6.34181 6.93985 6.34181 7.17417 6.57613L10.1742 9.57613C10.2867 9.68865 10.3499 9.84126 10.3499 10.0004C10.3499 10.1595 10.2867 10.3121 10.1742 10.4247L7.17417 13.4247C6.93985 13.659 6.55995 13.659 6.32564 13.4247C6.09132 13.1903 6.09132 12.8104 6.32564 12.5761L8.30137 10.6004H1.2499C0.918532 10.6004 0.649902 10.3318 0.649902 10.0004Z" fill="white"/>
</svg>
