<svg width="20" height="20" viewBox="0 0 20 20" fill="none" xmlns="http://www.w3.org/2000/svg">
<path fill-rule="evenodd" clip-rule="evenodd" d="M3.55566 4.94679C3.55566 4.16562 4.16895 3.55518 4.8977 3.55518C5.62645 3.55518 6.23974 4.16562 6.23974 4.94679C6.23974 5.72796 5.62645 6.33841 4.8977 6.33841C4.16895 6.33841 3.55566 5.72796 3.55566 4.94679ZM4.8977 2.55518C3.59179 2.55518 2.55566 3.63854 2.55566 4.94679C2.55566 6.25504 3.59179 7.33841 4.8977 7.33841C6.03273 7.33841 6.96397 6.52 7.18823 5.44686H18.6088C18.8849 5.44686 19.1088 5.223 19.1088 4.94686C19.1088 4.67072 18.8849 4.44686 18.6088 4.44686H7.18826C6.96405 3.37365 6.03278 2.55518 4.8977 2.55518ZM3.55575 15.9249C3.55575 15.1437 4.16903 14.5333 4.89778 14.5333C5.62653 14.5333 6.23982 15.1437 6.23982 15.9249C6.23982 16.7061 5.62653 17.3165 4.89778 17.3165C4.16903 17.3165 3.55575 16.7061 3.55575 15.9249ZM4.89778 13.5333C3.59187 13.5333 2.55575 14.6166 2.55575 15.9249C2.55575 17.2332 3.59187 18.3165 4.89778 18.3165C6.03253 18.3165 6.96358 17.4985 7.18814 16.4258H18.6088C18.885 16.4258 19.1088 16.2019 19.1088 15.9258C19.1088 15.6496 18.885 15.4258 18.6088 15.4258H7.18851C6.9646 14.3522 6.03315 13.5333 4.89778 13.5333ZM16.7694 9.04395C16.0686 9.04395 15.4745 9.60846 15.43 10.3464C15.4352 10.3754 15.4379 10.4052 15.4379 10.4356C15.4379 10.4661 15.4352 10.4958 15.43 10.5248C15.4746 11.2627 16.0686 11.8272 16.7694 11.8272C17.4981 11.8272 18.1114 11.2167 18.1114 10.4356C18.1114 9.65439 17.4981 9.04395 16.7694 9.04395ZM16.7694 8.04395C15.6343 8.04395 14.703 8.86242 14.4788 9.93563H3.26025C2.98411 9.93563 2.76025 10.1595 2.76025 10.4356C2.76025 10.7118 2.98411 10.9356 3.26025 10.9356H14.4788C14.7031 12.0088 15.6343 12.8272 16.7694 12.8272C18.0753 12.8272 19.1114 11.7438 19.1114 10.4356C19.1114 9.12731 18.0753 8.04395 16.7694 8.04395Z" fill="#CACACB"/>
</svg>
